<svg width="247" height="23" viewBox="0 0 247 23" fill="none" xmlns="http://www.w3.org/2000/svg">
<path d="M0.734375 18V0.9375H6.58203C8.51172 0.9375 9.98047 1.32422 10.9883 2.09766C11.9961 2.87109 12.5 4.02344 12.5 5.55469C12.5 6.33594 12.2891 7.03906 11.8672 7.66406C11.4453 8.28906 10.8281 8.77344 10.0156 9.11719C10.9375 9.36719 11.6484 9.83984 12.1484 10.5352C12.6562 11.2227 12.9102 12.0508 12.9102 13.0195C12.9102 14.6211 12.3945 15.8516 11.3633 16.7109C10.3398 17.5703 8.87109 18 6.95703 18H0.734375ZM3.69922 10.3008V15.6328H6.99219C7.92188 15.6328 8.64844 15.4023 9.17188 14.9414C9.69531 14.4805 9.95703 13.8398 9.95703 13.0195C9.95703 11.2461 9.05078 10.3398 7.23828 10.3008H3.69922ZM3.69922 8.12109H6.60547C7.52734 8.12109 8.24609 7.91406 8.76172 7.5C9.28516 7.07812 9.54688 6.48438 9.54688 5.71875C9.54688 4.875 9.30469 4.26562 8.82031 3.89062C8.34375 3.51562 7.59766 3.32812 6.58203 3.32812H3.69922V8.12109ZM15.0664 11.543C15.0664 10.3008 15.3125 9.18359 15.8047 8.19141C16.2969 7.19141 16.9883 6.42578 17.8789 5.89453C18.7695 5.35547 19.793 5.08594 20.9492 5.08594C22.6602 5.08594 24.0469 5.63672 25.1094 6.73828C26.1797 7.83984 26.7578 9.30078 26.8438 11.1211L26.8555 11.7891C26.8555 13.0391 26.6133 14.1562 26.1289 15.1406C25.6523 16.125 24.9648 16.8867 24.0664 17.4258C23.1758 17.9648 22.1445 18.2344 20.9727 18.2344C19.1836 18.2344 17.75 17.6406 16.6719 16.4531C15.6016 15.2578 15.0664 13.668 15.0664 11.6836V11.543ZM17.9141 11.7891C17.9141 13.0938 18.1836 14.1172 18.7227 14.8594C19.2617 15.5938 20.0117 15.9609 20.9727 15.9609C21.9336 15.9609 22.6797 15.5859 23.2109 14.8359C23.75 14.0859 24.0195 12.9883 24.0195 11.543C24.0195 10.2617 23.7422 9.24609 23.1875 8.49609C22.6406 7.74609 21.8945 7.37109 20.9492 7.37109C20.0195 7.37109 19.2812 7.74219 18.7344 8.48438C18.1875 9.21875 17.9141 10.3203 17.9141 11.7891ZM28.7305 11.543C28.7305 10.3008 28.9766 9.18359 29.4688 8.19141C29.9609 7.19141 30.6523 6.42578 31.543 5.89453C32.4336 5.35547 33.457 5.08594 34.6133 5.08594C36.3242 5.08594 37.7109 5.63672 38.7734 6.73828C39.8438 7.83984 40.4219 9.30078 40.5078 11.1211L40.5195 11.7891C40.5195 13.0391 40.2773 14.1562 39.793 15.1406C39.3164 16.125 38.6289 16.8867 37.7305 17.4258C36.8398 17.9648 35.8086 18.2344 34.6367 18.2344C32.8477 18.2344 31.4141 17.6406 30.3359 16.4531C29.2656 15.2578 28.7305 13.668 28.7305 11.6836V11.543ZM31.5781 11.7891C31.5781 13.0938 31.8477 14.1172 32.3867 14.8594C32.9258 15.5938 33.6758 15.9609 34.6367 15.9609C35.5977 15.9609 36.3438 15.5859 36.875 14.8359C37.4141 14.0859 37.6836 12.9883 37.6836 11.543C37.6836 10.2617 37.4062 9.24609 36.8516 8.49609C36.3047 7.74609 35.5586 7.37109 34.6133 7.37109C33.6836 7.37109 32.9453 7.74219 32.3984 8.48438C31.8516 9.21875 31.5781 10.3203 31.5781 11.7891ZM46.4961 2.23828V5.32031H48.7344V7.42969H46.4961V14.5078C46.4961 14.9922 46.5898 15.3438 46.7773 15.5625C46.9727 15.7734 47.3164 15.8789 47.8086 15.8789C48.1367 15.8789 48.4688 15.8398 48.8047 15.7617V17.9648C48.1562 18.1445 47.5312 18.2344 46.9297 18.2344C44.7422 18.2344 43.6484 17.0273 43.6484 14.6133V7.42969H41.5625V5.32031H43.6484V2.23828H46.4961ZM56.1289 15.9609C56.8398 15.9609 57.4297 15.7539 57.8984 15.3398C58.3672 14.9258 58.6172 14.4141 58.6484 13.8047H61.332C61.3008 14.5938 61.0547 15.332 60.5938 16.0195C60.1328 16.6992 59.5078 17.2383 58.7188 17.6367C57.9297 18.0352 57.0781 18.2344 56.1641 18.2344C54.3906 18.2344 52.9844 17.6602 51.9453 16.5117C50.9062 15.3633 50.3867 13.7773 50.3867 11.7539V11.4609C50.3867 9.53125 50.9023 7.98828 51.9336 6.83203C52.9648 5.66797 54.3711 5.08594 56.1523 5.08594C57.6602 5.08594 58.8867 5.52734 59.832 6.41016C60.7852 7.28516 61.2852 8.4375 61.332 9.86719H58.6484C58.6172 9.14062 58.3672 8.54297 57.8984 8.07422C57.4375 7.60547 56.8477 7.37109 56.1289 7.37109C55.207 7.37109 54.4961 7.70703 53.9961 8.37891C53.4961 9.04297 53.2422 10.0547 53.2344 11.4141V11.8711C53.2344 13.2461 53.4805 14.2734 53.9727 14.9531C54.4727 15.625 55.1914 15.9609 56.1289 15.9609ZM71.0586 18C70.9336 17.7578 70.8242 17.3633 70.7305 16.8164C69.8242 17.7617 68.7148 18.2344 67.4023 18.2344C66.1289 18.2344 65.0898 17.8711 64.2852 17.1445C63.4805 16.418 63.0781 15.5195 63.0781 14.4492C63.0781 13.0977 63.5781 12.0625 64.5781 11.3438C65.5859 10.6172 67.0234 10.2539 68.8906 10.2539H70.6367V9.42188C70.6367 8.76562 70.4531 8.24219 70.0859 7.85156C69.7188 7.45312 69.1602 7.25391 68.4102 7.25391C67.7617 7.25391 67.2305 7.41797 66.8164 7.74609C66.4023 8.06641 66.1953 8.47656 66.1953 8.97656H63.3477C63.3477 8.28125 63.5781 7.63281 64.0391 7.03125C64.5 6.42188 65.125 5.94531 65.9141 5.60156C66.7109 5.25781 67.5977 5.08594 68.5742 5.08594C70.0586 5.08594 71.2422 5.46094 72.125 6.21094C73.0078 6.95312 73.4609 8 73.4844 9.35156V15.0703C73.4844 16.2109 73.6445 17.1211 73.9648 17.8008V18H71.0586ZM67.9297 15.9492C68.4922 15.9492 69.0195 15.8125 69.5117 15.5391C70.0117 15.2656 70.3867 14.8984 70.6367 14.4375V12.0469H69.1016C68.0469 12.0469 67.2539 12.2305 66.7227 12.5977C66.1914 12.9648 65.9258 13.4844 65.9258 14.1562C65.9258 14.7031 66.1055 15.1406 66.4648 15.4688C66.832 15.7891 67.3203 15.9492 67.9297 15.9492ZM79.1445 5.32031L79.2266 6.64453C80.1172 5.60547 81.3359 5.08594 82.8828 5.08594C84.5781 5.08594 85.7383 5.73438 86.3633 7.03125C87.2852 5.73438 88.582 5.08594 90.2539 5.08594C91.6523 5.08594 92.6914 5.47266 93.3711 6.24609C94.0586 7.01953 94.4102 8.16016 94.4258 9.66797V18H91.5781V9.75C91.5781 8.94531 91.4023 8.35547 91.0508 7.98047C90.6992 7.60547 90.1172 7.41797 89.3047 7.41797C88.6562 7.41797 88.125 7.59375 87.7109 7.94531C87.3047 8.28906 87.0195 8.74219 86.8555 9.30469L86.8672 18H84.0195V9.65625C83.9805 8.16406 83.2188 7.41797 81.7344 7.41797C80.5938 7.41797 79.7852 7.88281 79.3086 8.8125V18H76.4609V5.32031H79.1445ZM108.453 11.7891C108.453 13.75 108.008 15.3164 107.117 16.4883C106.227 17.6523 105.031 18.2344 103.531 18.2344C102.141 18.2344 101.027 17.7773 100.191 16.8633V22.875H97.3438V5.32031H99.9688L100.086 6.60938C100.922 5.59375 102.059 5.08594 103.496 5.08594C105.043 5.08594 106.254 5.66406 107.129 6.82031C108.012 7.96875 108.453 9.56641 108.453 11.6133V11.7891ZM105.617 11.543C105.617 10.2773 105.363 9.27344 104.855 8.53125C104.355 7.78906 103.637 7.41797 102.699 7.41797C101.535 7.41797 100.699 7.89844 100.191 8.85938V14.4844C100.707 15.4688 101.551 15.9609 102.723 15.9609C103.629 15.9609 104.336 15.5977 104.844 14.8711C105.359 14.1367 105.617 13.0273 105.617 11.543ZM117.125 18V0.9375H122.164C123.672 0.9375 125.008 1.27344 126.172 1.94531C127.344 2.61719 128.25 3.57031 128.891 4.80469C129.531 6.03906 129.852 7.45312 129.852 9.04688V9.90234C129.852 11.5195 129.527 12.9414 128.879 14.168C128.238 15.3945 127.32 16.3398 126.125 17.0039C124.938 17.668 123.574 18 122.035 18H117.125ZM120.09 3.32812V15.6328H122.023C123.578 15.6328 124.77 15.1484 125.598 14.1797C126.434 13.2031 126.859 11.8047 126.875 9.98438V9.03516C126.875 7.18359 126.473 5.76953 125.668 4.79297C124.863 3.81641 123.695 3.32812 122.164 3.32812H120.09ZM138.113 18.2344C136.309 18.2344 134.844 17.668 133.719 16.5352C132.602 15.3945 132.043 13.8789 132.043 11.9883V11.6367C132.043 10.3711 132.285 9.24219 132.77 8.25C133.262 7.25 133.949 6.47266 134.832 5.91797C135.715 5.36328 136.699 5.08594 137.785 5.08594C139.512 5.08594 140.844 5.63672 141.781 6.73828C142.727 7.83984 143.199 9.39844 143.199 11.4141V12.5625H134.914C135 13.6094 135.348 14.4375 135.957 15.0469C136.574 15.6562 137.348 15.9609 138.277 15.9609C139.582 15.9609 140.645 15.4336 141.465 14.3789L143 15.8438C142.492 16.6016 141.812 17.1914 140.961 17.6133C140.117 18.0273 139.168 18.2344 138.113 18.2344ZM137.773 7.37109C136.992 7.37109 136.359 7.64453 135.875 8.19141C135.398 8.73828 135.094 9.5 134.961 10.4766H140.387V10.2656C140.324 9.3125 140.07 8.59375 139.625 8.10938C139.18 7.61719 138.562 7.37109 137.773 7.37109ZM149.727 14.3906L152.41 5.32031H155.352L150.957 18H148.484L144.055 5.32031H147.008L149.727 14.3906ZM166.332 13.6055C166.332 12.8555 166.066 12.2773 165.535 11.8711C165.012 11.4648 164.062 11.0547 162.688 10.6406C161.312 10.2266 160.219 9.76562 159.406 9.25781C157.852 8.28125 157.074 7.00781 157.074 5.4375C157.074 4.0625 157.633 2.92969 158.75 2.03906C159.875 1.14844 161.332 0.703125 163.121 0.703125C164.309 0.703125 165.367 0.921875 166.297 1.35938C167.227 1.79687 167.957 2.42188 168.488 3.23438C169.02 4.03906 169.285 4.93359 169.285 5.91797H166.332C166.332 5.02734 166.051 4.33203 165.488 3.83203C164.934 3.32422 164.137 3.07031 163.098 3.07031C162.129 3.07031 161.375 3.27734 160.836 3.69141C160.305 4.10547 160.039 4.68359 160.039 5.42578C160.039 6.05078 160.328 6.57422 160.906 6.99609C161.484 7.41016 162.438 7.81641 163.766 8.21484C165.094 8.60547 166.16 9.05469 166.965 9.5625C167.77 10.0625 168.359 10.6406 168.734 11.2969C169.109 11.9453 169.297 12.707 169.297 13.582C169.297 15.0039 168.75 16.1367 167.656 16.9805C166.57 17.8164 165.094 18.2344 163.227 18.2344C161.992 18.2344 160.855 18.0078 159.816 17.5547C158.785 17.0938 157.98 16.4609 157.402 15.6562C156.832 14.8516 156.547 13.9141 156.547 12.8438H159.512C159.512 13.8125 159.832 14.5625 160.473 15.0938C161.113 15.625 162.031 15.8906 163.227 15.8906C164.258 15.8906 165.031 15.6836 165.547 15.2695C166.07 14.8477 166.332 14.293 166.332 13.6055ZM179.305 16.7578C178.469 17.7422 177.281 18.2344 175.742 18.2344C174.367 18.2344 173.324 17.832 172.613 17.0273C171.91 16.2227 171.559 15.0586 171.559 13.5352V5.32031H174.406V13.5C174.406 15.1094 175.074 15.9141 176.41 15.9141C177.793 15.9141 178.727 15.418 179.211 14.4258V5.32031H182.059V18H179.375L179.305 16.7578ZM196.062 11.7891C196.062 13.75 195.617 15.3164 194.727 16.4883C193.836 17.6523 192.641 18.2344 191.141 18.2344C189.75 18.2344 188.637 17.7773 187.801 16.8633V22.875H184.953V5.32031H187.578L187.695 6.60938C188.531 5.59375 189.668 5.08594 191.105 5.08594C192.652 5.08594 193.863 5.66406 194.738 6.82031C195.621 7.96875 196.062 9.56641 196.062 11.6133V11.7891ZM193.227 11.543C193.227 10.2773 192.973 9.27344 192.465 8.53125C191.965 7.78906 191.246 7.41797 190.309 7.41797C189.145 7.41797 188.309 7.89844 187.801 8.85938V14.4844C188.316 15.4688 189.16 15.9609 190.332 15.9609C191.238 15.9609 191.945 15.5977 192.453 14.8711C192.969 14.1367 193.227 13.0273 193.227 11.543ZM204.066 18.2344C202.262 18.2344 200.797 17.668 199.672 16.5352C198.555 15.3945 197.996 13.8789 197.996 11.9883V11.6367C197.996 10.3711 198.238 9.24219 198.723 8.25C199.215 7.25 199.902 6.47266 200.785 5.91797C201.668 5.36328 202.652 5.08594 203.738 5.08594C205.465 5.08594 206.797 5.63672 207.734 6.73828C208.68 7.83984 209.152 9.39844 209.152 11.4141V12.5625H200.867C200.953 13.6094 201.301 14.4375 201.91 15.0469C202.527 15.6562 203.301 15.9609 204.23 15.9609C205.535 15.9609 206.598 15.4336 207.418 14.3789L208.953 15.8438C208.445 16.6016 207.766 17.1914 206.914 17.6133C206.07 18.0273 205.121 18.2344 204.066 18.2344ZM203.727 7.37109C202.945 7.37109 202.312 7.64453 201.828 8.19141C201.352 8.73828 201.047 9.5 200.914 10.4766H206.34V10.2656C206.277 9.3125 206.023 8.59375 205.578 8.10938C205.133 7.61719 204.516 7.37109 203.727 7.37109ZM218.012 7.92188C217.637 7.85938 217.25 7.82812 216.852 7.82812C215.547 7.82812 214.668 8.32812 214.215 9.32812V18H211.367V5.32031H214.086L214.156 6.73828C214.844 5.63672 215.797 5.08594 217.016 5.08594C217.422 5.08594 217.758 5.14062 218.023 5.25L218.012 7.92188ZM222.84 18H219.992V5.32031H222.84V18ZM219.816 2.02734C219.816 1.58984 219.953 1.22656 220.227 0.9375C220.508 0.648437 220.906 0.503906 221.422 0.503906C221.938 0.503906 222.336 0.648437 222.617 0.9375C222.898 1.22656 223.039 1.58984 223.039 2.02734C223.039 2.45703 222.898 2.81641 222.617 3.10547C222.336 3.38672 221.938 3.52734 221.422 3.52734C220.906 3.52734 220.508 3.38672 220.227 3.10547C219.953 2.81641 219.816 2.45703 219.816 2.02734ZM225.418 11.543C225.418 10.3008 225.664 9.18359 226.156 8.19141C226.648 7.19141 227.34 6.42578 228.23 5.89453C229.121 5.35547 230.145 5.08594 231.301 5.08594C233.012 5.08594 234.398 5.63672 235.461 6.73828C236.531 7.83984 237.109 9.30078 237.195 11.1211L237.207 11.7891C237.207 13.0391 236.965 14.1562 236.48 15.1406C236.004 16.125 235.316 16.8867 234.418 17.4258C233.527 17.9648 232.496 18.2344 231.324 18.2344C229.535 18.2344 228.102 17.6406 227.023 16.4531C225.953 15.2578 225.418 13.668 225.418 11.6836V11.543ZM228.266 11.7891C228.266 13.0938 228.535 14.1172 229.074 14.8594C229.613 15.5938 230.363 15.9609 231.324 15.9609C232.285 15.9609 233.031 15.5859 233.562 14.8359C234.102 14.0859 234.371 12.9883 234.371 11.543C234.371 10.2617 234.094 9.24609 233.539 8.49609C232.992 7.74609 232.246 7.37109 231.301 7.37109C230.371 7.37109 229.633 7.74219 229.086 8.48438C228.539 9.21875 228.266 10.3203 228.266 11.7891ZM246.254 7.92188C245.879 7.85938 245.492 7.82812 245.094 7.82812C243.789 7.82812 242.91 8.32812 242.457 9.32812V18H239.609V5.32031H242.328L242.398 6.73828C243.086 5.63672 244.039 5.08594 245.258 5.08594C245.664 5.08594 246 5.14062 246.266 5.25L246.254 7.92188Z" fill="white"/>
</svg>
